<svg width="128" height="96" viewBox="0 0 128 96" fill="none" xmlns="http://www.w3.org/2000/svg">
  <defs>
    <linearGradient id="body" x1="18" y1="32" x2="108" y2="74" gradientUnits="userSpaceOnUse">
      <stop stop-color="#45d4ff"/>
      <stop offset="1" stop-color="#1f7bff"/>
    </linearGradient>
    <linearGradient id="glass" x1="48" y1="28" x2="90" y2="48" gradientUnits="userSpaceOnUse">
      <stop stop-color="#d7f4ff"/>
      <stop offset="1" stop-color="#8ec8ff"/>
    </linearGradient>
  </defs>
  <ellipse cx="64" cy="82" rx="44" ry="6" fill="#000" fill-opacity="0.25"/>
  <path d="M22 59C22 54.5 25.2 50.6 29.6 49.8L36.6 48.5L46 34.5C48.2 31.3 51.8 29.5 55.6 29.5H82.8C86.6 29.5 90.2 31.3 92.4 34.5L101.4 48.4L106.9 49.6C111.5 50.5 115 54.5 115 59.2V64.9C115 68.8 111.8 72 107.9 72H29.1C25.2 72 22 68.8 22 64.9V59Z" fill="url(#body)"/>
  <path d="M51.4 36.5H82.2C84.3 36.5 86.2 37.6 87.3 39.4L92.4 47.8H42L46.4 39.6C47.5 37.7 49.4 36.5 51.4 36.5Z" fill="url(#glass)"/>
  <circle cx="42" cy="72" r="11" fill="#0f172a"/>
  <circle cx="42" cy="72" r="5.3" fill="#b9c6d7"/>
  <circle cx="94" cy="72" r="11" fill="#0f172a"/>
  <circle cx="94" cy="72" r="5.3" fill="#b9c6d7"/>
  <rect x="100" y="55" width="10" height="5" rx="2.5" fill="#fff3a0"/>
  <rect x="20" y="55" width="9" height="5" rx="2.5" fill="#ffd3d3"/>
</svg>
